<?xml version="1.0" encoding="utf-8"?>
<!-- Generator: Adobe Illustrator 16.0.4, SVG Export Plug-In . SVG Version: 6.00 Build 0)  -->
<!DOCTYPE svg PUBLIC "-//W3C//DTD SVG 1.1//EN" "http://www.w3.org/Graphics/SVG/1.1/DTD/svg11.dtd">
<svg version="1.1" id="Layer_1" xmlns="http://www.w3.org/2000/svg" xmlns:xlink="http://www.w3.org/1999/xlink" x="0px" y="0px"
	 width="1000px" height="1000px" viewBox="0 -388 1000 1000" enable-background="new 0 -388 1000 1000" xml:space="preserve">
<polygon fill="#FFFFFF" stroke="#F9F5FC" stroke-width="2.1129" points="153,612 0,134.321 0,612 "/>
<polygon fill="#FFFFFF" stroke="#F9F5FC" stroke-width="2.1129" points="206,241.464 153,612 234,612 "/>
<polygon fill="#FFFFFF" stroke="#F9F5FC" stroke-width="2.1129" points="0,134.321 206,241.464 153,612 "/>
<polygon fill="#FFFFFF" stroke="#F9F5FC" stroke-width="2.1129" points="234,612 370,612 206,241.464 "/>
<polygon fill="#FFFFFF" stroke="#F9F5FC" stroke-width="2.1129" points="418,134.321 370,612 206,241.464 "/>
<polygon fill="#FFFFFF" stroke="#F9F5FC" stroke-width="2.1129" points="500,612 418,134.321 370,612 "/>
<polygon fill="#FFFFFF" stroke="#F9F5FC" stroke-width="2.1129" points="214,-106.75 206,241.464 418,134.321 "/>
<polygon fill="#FFFFFF" stroke="#F9F5FC" stroke-width="2.1129" points="0,134.321 214,-106.75 206,241.464 "/>
<polygon fill="#FFFFFF" stroke="#F9F5FC" stroke-width="2.1129" points="619,612 418,134.321 500,612 "/>
<polygon fill="#FFFFFF" stroke="#F9F5FC" stroke-width="2.1129" points="759,612 708,241.464 619,612 "/>
<polygon fill="#FFFFFF" stroke="#F9F5FC" stroke-width="2.1129" points="891,612 708,241.464 759,612 "/>
<polygon fill="#FFFFFF" stroke="#F9F5FC" stroke-width="2.1129" points="1000,612 926,192.357 891,612 "/>
<polygon fill="#FFFFFF" stroke="#F9F5FC" stroke-width="2.1129" points="708,241.464 926,192.357 891,612 "/>
<polygon fill="#FFFFFF" stroke="#F9F5FC" stroke-width="2.1129" points="619,612 708,241.464 418,134.321 "/>
<polygon fill="#FFFFFF" stroke="#F9F5FC" stroke-width="2.1129" points="214,-106.75 464,-164.786 418,134.321 "/>
<polygon fill="#FFFFFF" stroke="#F9F5FC" stroke-width="2.1129" points="0,-388 214,-106.75 0,134.321 "/>
<polygon fill="#FFFFFF" stroke="#F9F5FC" stroke-width="2.1129" points="339,-388 214,-106.75 0,-388 "/>
<polygon fill="#FFFFFF" stroke="#F9F5FC" stroke-width="2.1129" points="464,-164.786 339,-388 214,-106.75 "/>
<polygon fill="#FFFFFF" stroke="#F9F5FC" stroke-width="2.1129" points="708,241.464 702,-388 418,134.321 "/>
<polygon fill="#FFFFFF" stroke="#F9F5FC" stroke-width="2.1129" points="464,-164.786 702,-388 418,134.321 "/>
<polygon fill="#FFFFFF" stroke="#F9F5FC" stroke-width="2.1129" points="339,-388 464,-164.786 702,-388 "/>
<polygon fill="#FFFFFF" stroke="#F9F5FC" stroke-width="2.1129" points="926,192.357 1000,-388 1000,612 "/>
<polygon fill="#FFFFFF" stroke="#F9F5FC" stroke-width="2.1129" points="702,-388 926,192.357 1000,-388 "/>
<polygon fill="#FFFFFF" stroke="#F9F5FC" stroke-width="2.1129" points="708,241.464 926,192.357 702,-388 "/>
</svg>
